<svg clip-rule="evenodd" fill-rule="evenodd" stroke-linejoin="round" stroke-miterlimit="2" viewBox="65.52 154.79 428.96 90.13" xmlns="http://www.w3.org/2000/svg"><g fill-rule="nonzero" transform="matrix(2.8125 0 0 2.8125 65.8281 152.188)"><path d="m16.2 23h-5.1c-1.6 0-3.1.4-4.2 1.6l-6.7 7.7c4.9.3 10 .3 13.6.3 18.3 0 21.2-11 21.3-16.5-1.6 2-6.4 6.9-18.9 6.9zm16.6-17.7c-.1.9-.6 4.8-11.6 4.8-8.9 0-12.5 0-21.3-.2l6.6 7.6c1.3 1.5 3.1 2 5.1 2.1 2.2 0 5.2.1 5.6.1 12.3 0 17.5-5.7 17.5-9.8.1-2.2-.6-3.6-1.9-4.6z" fill="#2a49e5"/><path d="m66 9.7h6.5v15.5c0 1.7-.4 3.2-1.1 4.4s-1.6 2-2.8 2.6-2.5.8-4 .8-2.8-.3-4-.8c-1.2-.6-2.1-1.4-2.8-2.6-.1-.1-.1-.3-.2-.4-.1.1-.1.3-.2.4-.7 1.2-1.6 2-2.8 2.6s-2.5.8-4 .8-2.8-.3-3.9-.8c-1.2-.6-2.1-1.4-2.8-2.6s-1-2.6-1-4.4l-.2-15.5h6.5v14.3c0 1 .2 1.7.7 2.1s1.1.6 1.8.6 1.4-.2 1.9-.6.8-1.1.8-2.1v-14.3h6.5v14.3c0 1 .3 1.7.8 2.1s1.2.6 1.9.6 1.3-.2 1.8-.6c.4-.4.6-1.1.6-2.1zm15.9-8.3c-.5-.3-1.1-.4-1.8-.4s-1.3.1-1.8.4-1 .7-1.3 1.2-.5 1.1-.5 1.7c0 1 .3 1.8 1 2.4s1.6.9 2.6.9c.7 0 1.3-.1 1.8-.4.6-.3 1-.7 1.3-1.2s.5-1.1.5-1.8-.2-1.2-.5-1.7c-.3-.4-.7-.8-1.3-1.1zm-5.1 31.1h6.5v-22.5h-6.5zm21.6-10.5c-.3-.5-.8-1-1.2-1.5-.4-.4-.9-.8-1.4-1.3-.4-.4-.7-.7-1-1-.2-.3-.3-.6-.3-1 0-.6.3-1 1-1.3s1.5-.4 2.5-.4h1l-.6-6c-.6-.1-1.2-.1-1.8-.1-1.6 0-3.1.2-4.6.6-1.4.4-2.6 1.1-3.5 2.1s-1.4 2.3-1.4 4c0 1.2.2 2.2.7 3.1s1.1 1.7 1.8 2.5c.4.4.8.8 1.2 1.2s.8.8 1 1.1.3.6.3 1c0 .6-.3 1.1-1 1.4s-1.6.5-2.9.5c-.5 0-.9 0-1.1-.1l.8 6c.6.2 1.1.2 1.8.2 1.9 0 3.5-.3 5-.8s2.7-1.3 3.6-2.4 1.3-2.4 1.3-4.1c0-.7-.1-1.4-.3-2.1-.3-.6-.5-1.1-.9-1.6zm11.9 4.1c-.5-.5-.7-1.2-.7-2.1v-8.3h4.7v-5.7h-4.7v-5.7l-6.5 1.9v19.9c0 2.3.5 4.1 1.4 5.2 1 1.1 2.4 1.7 4.3 1.7 1 0 1.9-.1 2.8-.2s1.6-.3 2.3-.6l1.2-5.6c-.7.2-1.6.3-2.6.3-1.1-.1-1.8-.3-2.2-.8zm8.1 6.4h6.5v-22.5h-6.5zm5.1-31.1c-.5-.3-1.1-.4-1.8-.4s-1.3.1-1.8.4-1 .7-1.3 1.2-.5 1.1-.5 1.7c0 1 .3 1.8 1 2.4s1.6.9 2.6.9c.7 0 1.3-.1 1.8-.4.6-.3 1-.7 1.3-1.2s.5-1.1.5-1.8-.2-1.2-.5-1.7c-.3-.4-.7-.8-1.3-1.1zm28.9 8.6v22.5h-6.5v-3.7c-.7 1.1-1.5 2-2.5 2.7-1.4 1-3.1 1.5-5 1.5s-3.6-.5-5-1.5-2.5-2.4-3.3-4.2-1.2-3.8-1.2-6.1.4-4.3 1.2-6c.8-1.8 1.9-3.2 3.3-4.2s3.1-1.5 5-1.5 3.6.5 5 1.5c1 .7 1.8 1.6 2.5 2.7v-3.7zm-7 14c.5-.8.7-1.8.7-2.8s-.2-2-.7-2.8c-.4-.8-1-1.5-1.8-1.9-.8-.5-1.6-.7-2.6-.7-.9 0-1.8.2-2.6.7s-1.4 1.1-1.8 1.9c-.5.8-.7 1.7-.7 2.8 0 1 .2 2 .7 2.8s1.1 1.5 1.8 1.9c.8.5 1.6.7 2.6.7.9 0 1.8-.2 2.6-.7.8-.4 1.4-1.1 1.8-1.9z" fill="#000933"/></g></svg>